# xmcd
#
# Track frame offsets:
#	150
#	28700
#	45470
#	72845
#	84470
#	102705
#	118720
#
# Disc length: 1919 seconds
#
# Revision: 2
# Processed by: cddbd v1.5.1PL2 Copyright (c) Steve Scherf et al.
# Submitted via: EasyCDDAExtractor 8.0.2.1
#
DISCID=59077d07
DTITLE=Black Sabbath - Agora Theatre Cleveland  19-02-94 Disc 2
DYEAR=1994
DGENRE=Hard Rock
TTITLE0=Symptom Of The Universe
TTITLE1=Drum Solo
TTITLE2=Headless Cross
TTITLE3=Paranoid
TTITLE4=Heaven and Hell
TTITLE5=Iron Man
TTITLE6=Sabbath Bloody Sabbath
EXTD=
EXTT0=
EXTT1=
EXTT2=
EXTT3=
EXTT4=
EXTT5=
EXTT6=
PLAYORDER=
